<?xml version="1.0"?>
<svg xmlns="http://www.w3.org/2000/svg" xmlns:xlink="http://www.w3.org/1999/xlink" xmlns:svgjs="http://svgjs.com/svgjs" version="1.1" width="512" height="512" x="0" y="0" viewBox="0 0 512 512" style="enable-background:new 0 0 512 512" xml:space="preserve" class=""><g><g xmlns="http://www.w3.org/2000/svg"><path d="m447.733 15c0-8.284-6.732-15-15.017-15-79.368 0-147.624 48.481-176.716 117.384-29.093-68.903-97.352-117.384-176.733-117.384-8.284 0-15 6.716-15 15 0 100.674 77.995 183.472 176.733 191.149v98.051c0 8.284 6.716 15 15 15s15-6.716 15-15v-98.051c98.738-7.677 176.733-90.475 176.733-191.149zm-352.705 15.76c76.628 7.439 137.772 68.583 145.211 145.211-76.622-7.445-137.765-68.588-145.211-145.211zm176.733 145.212c7.438-76.623 68.578-137.765 145.211-145.21-7.447 76.622-68.589 137.764-145.211 145.21z" fill="#00274c" data-original="#000000" style="" class=""/><path d="m162.173 301.626c-18.79-18.789-48.744-19.079-67.906-1.445v-60.265c0-43.681-35.542-79.25-79.25-79.25h-.017c-8.284 0-15 6.716-15 15v192.8c0 3.978 1.581 7.793 4.394 10.606l92.006 92.008v25.92c0 8.284 6.716 15 15 15h112.467c8.284 0 15-6.716 15-15v-85.844c0-21.175-8.245-41.081-23.215-56.051zm46.694 180.374h-82.467v-17.133c0-3.978-1.581-7.793-4.394-10.606l-92.006-92.008v-169.225c28.342 9.097 34.267 35.359 34.267 46.889v96.417c0 3.979 1.581 7.793 4.394 10.606l64.267 64.267c5.858 5.857 15.356 5.858 21.213 0 5.858-5.857 5.858-15.355 0-21.213l-40.167-40.167c-7.456-7.457-7.462-19.524 0-26.987 7.461-7.46 19.523-7.463 26.987 0l53.478 53.479c9.305 9.304 14.429 21.676 14.429 34.837v70.844z" fill="#00274c" data-original="#000000" style="" class=""/><path d="m497 160.667h-.016c-43.708 0-79.25 35.57-79.25 79.25v60.265c-19.162-17.634-49.116-17.344-67.906 1.445l-53.479 53.479c-14.97 14.97-23.215 34.876-23.215 56.051v85.843c0 8.284 6.716 15 15 15h112.466c8.284 0 15-6.716 15-15v-25.92l92.006-92.007c2.813-2.813 4.394-6.628 4.394-10.606v-192.8c0-8.285-6.716-15-15-15zm-15 201.586-92.006 92.007c-2.813 2.813-4.394 6.628-4.394 10.606v17.134h-82.467v-70.844c0-13.161 5.124-25.533 14.429-34.837l53.478-53.479c7.464-7.463 19.527-7.46 26.987 0 7.462 7.463 7.456 19.53 0 26.987l-40.167 40.167c-5.857 5.858-5.857 15.355 0 21.213s15.355 5.857 21.213 0l64.267-64.267c2.813-2.813 4.394-6.628 4.394-10.606v-96.417c0-11.53 5.925-37.792 34.267-46.889v169.225z" fill="#00274c" data-original="#000000" style="" class=""/></g></g></svg>
